<svg id="Calque_1" data-name="Calque 1" xmlns="http://www.w3.org/2000/svg" viewBox="0 0 279.11 363.67"><defs><style>.cls-1{fill:#273480;}</style></defs><title>logo</title><path class="cls-1" d="M31.87,246.15l-.6-.73c-6.58-8.14-10.68-14-12.21-17.43a16.18,16.18,0,0,1,1-15.69,15.45,15.45,0,0,1,12.8-7.2h.62c4.81,0,8.87,1.45,11.73,4.17a15,15,0,0,1,4.39,11.16c.1,9.71-8.72,18.05-17,25.11Zm3.18,70.64a26.61,26.61,0,0,1-4.6-.41C18.34,314.24,7.94,304,6.25,292.53c-1.42-16,12.73-27.73,24.1-37.19l.7-.58.59.7C42.27,268.08,55.36,282.28,64.46,292l.45.48-.31.59q-1.15,2.1-2.26,4.27C55.29,310,45.72,316.79,35.05,316.79m34.31-19.64,2.05,2.16c27.94,29.28,73,64.19,128.81,64.19,42.93,0,70.42-20.5,77.82-26.79a2.95,2.95,0,0,0,.32-4.23,3.13,3.13,0,0,0-4.36-.32c-13.17,11.19-39.85,24.52-71.67,25.28-43.68.85-86.16-20-126.42-62.24l-3-3.15-.47-.5.34-.6c18.37-32,40.27-52.6,55.79-52.6a3,3,0,1,0,0-6c-17.6,0-40.56,20.5-59.91,53.5L68,286.89l-.84-.9c-12.06-12.87-22.73-24.78-30.87-34.45l-.59-.7.7-.59c9.4-8,19.43-17.58,19.31-29.85A21.12,21.12,0,0,0,49.49,205c-4.15-4-10.1-6-16.81-5.87a21.84,21.84,0,0,0-17.86,10,22.24,22.24,0,0,0-1.4,21.32c1.75,3.94,6.18,10.3,13.17,18.94l.57.7-.7.59C14,261-1.58,274,.13,293.21c2.06,14,14.63,26.52,29.23,29.1,15.11,2.68,29.13-5.4,38.44-22.19.31-.6.63-1.22,1-1.84Z" transform="translate(0 0.17)"/><path class="cls-1" d="M105.33-.17a2.91,2.91,0,0,0-3.07,3V178.48c0,15.8,10.3,26,26.24,26a3,3,0,0,0,3.3-3c0-1.38-1-2.77-3.3-2.77-11.65,0-20.11-8.51-20.11-20.24V2.83a2.83,2.83,0,0,0-3.07-3" transform="translate(0 0.17)"/><path class="cls-1" d="M153.41,0a2.91,2.91,0,0,0-3.07,3V281.23c0,15.8,10.3,26,26.24,26,3.06,0,3.3-2.3,3.3-3,0-1.38-1-2.77-3.3-2.77-11.65,0-20.11-8.51-20.11-20.24V3a2.83,2.83,0,0,0-3.07-3" transform="translate(0 0.17)"/><path class="cls-1" d="M230.83,301.28h-2.34c-16.65,0-27.83-9.89-27.83-24.62v-1.14c0-18.22,21.12-21.89,38.1-24.84,6.24-1.08,12.13-2.09,15.75-3.69l3.92-1.73V273.9a27.52,27.52,0,0,1-27.6,27.38m28.62-8.93,1.62,4.3c2.18,5.8,6.79,9.12,14.49,10.44l.65,0c1.73,0,2.88-1.29,2.88-3.23a2.63,2.63,0,0,0-2.56-2.81h0c-9.57-1.52-12.19-6.8-12.19-24.58V230.17c0-17-14.8-31.3-32.33-31.3h-1.63c-8.57,0-24,2.45-31.4,18.85a2.81,2.81,0,0,0-.47,1.41c0,1.8,1.83,3,3.54,3a2.61,2.61,0,0,0,2.63-1.84c5.75-12.74,17.15-15.42,25.7-15.42H232a26,26,0,0,1,26.43,26.23c0,6.2-1.31,8.85-8.67,11.35a133.11,133.11,0,0,1-16.23,3.84c-18.18,3.55-38.77,7.56-38.77,29v1.15c0,21,17.49,30.61,33.73,30.61h2.34a33.77,33.77,0,0,0,25.54-11.26Z" transform="translate(0 0.17)"/><path class="cls-1" d="M200.61,127.32V98.69a27.53,27.53,0,0,1,27.6-27.38h2.34c16.64,0,27.83,9.89,27.83,24.61v1.15c0,18.22-21.13,21.88-38.11,24.83C214,123,208.11,124,204.53,125.59Zm27.6-61.78a33.73,33.73,0,0,0-25.53,11.27c-5,5.44-8,12.67-8,19.34v46.26c0,17,14.8,31.3,32.33,31.3h1.64c8.57,0,24-2.45,31.39-18.84a2.81,2.81,0,0,0,.46-1.42c0-1.77-1.86-3-3.53-3a2.6,2.6,0,0,0-2.62,1.85c-5.76,12.74-17.16,15.41-25.71,15.41H227a26,26,0,0,1-26.43-26.22c0-6.2,1.31-8.85,8.67-11.35h0a132.43,132.43,0,0,1,16.23-3.84c18.18-3.55,38.76-7.56,38.76-29V96.15c0-21-17.49-30.61-33.73-30.61Z" transform="translate(0 0.17)"/><path class="cls-1" d="M6.16,127.32V98.69a27.52,27.52,0,0,1,27.6-27.38h2.34c16.65,0,27.84,9.89,27.84,24.61v1.15c0,18.22-21.13,21.88-38.11,24.83C19.55,123,13.66,124,10.08,125.59Zm27.6-61.78A33.76,33.76,0,0,0,8.22,76.81a29.52,29.52,0,0,0-8,19.34v46.26c0,17,14.81,31.3,32.33,31.3h1.64c8.57,0,24-2.45,31.39-18.84a2.81,2.81,0,0,0,.46-1.42c0-1.77-1.86-3-3.53-3a2.61,2.61,0,0,0-2.62,1.85C54.18,165,42.78,167.71,34.23,167.71H32.59A26,26,0,0,1,6.16,141.49c0-6.2,1.31-8.84,8.67-11.35h0a132.2,132.2,0,0,1,16.23-3.84c18.18-3.55,38.76-7.57,38.76-29V96.15c0-21-17.48-30.61-33.73-30.61Z" transform="translate(0 0.17)"/></svg>